{
	"asset":{
		"copyright":"no",
		"generator":"Khronos glTF Blender I/O v4.1.63",
		"version":"2.0"
	},
	"extensionsUsed":[
		"KHR_materials_transmission",
		"KHR_materials_specular"
	],
	"scene":0,
	"scenes":[
		{
			"name":"Scene",
			"nodes":[
				0
			]
		}
	],
	"nodes":[
		{
			"mesh":0,
			"name":"Bike",
			"rotation":[
				0.7071068286895752,
				0,
				0,
				0.7071068286895752
			]
		}
	],
	"materials":[
		{
			"doubleSided":true,
			"extensions":{
				"KHR_materials_transmission":{
					"transmissionFactor":1
				},
				"KHR_materials_specular":{
					"specularColorFactor":[
						1.7999998331069946,
						1.7999998331069946,
						1.7999998331069946
					]
				}
			},
			"name":"Standardmaterial1",
			"normalTexture":{
				"index":0,
				"scale":0
			},
			"pbrMetallicRoughness":{
				"baseColorTexture":{
					"index":1
				},
				"metallicFactor":0,
				"roughnessFactor":0.8995858430862427
			}
		},
		{
			"doubleSided":true,
			"extensions":{
				"KHR_materials_transmission":{
					"transmissionFactor":1
				},
				"KHR_materials_specular":{
					"specularColorFactor":[
						1.7999998331069946,
						1.7999998331069946,
						1.7999998331069946
					]
				}
			},
			"name":"Standardmaterial2",
			"normalTexture":{
				"index":2,
				"scale":0
			},
			"pbrMetallicRoughness":{
				"baseColorTexture":{
					"index":3
				},
				"metallicFactor":0,
				"roughnessFactor":0.8995858430862427
			}
		}
	],
	"meshes":[
		{
			"name":"Bike",
			"primitives":[
				{
					"attributes":{
						"POSITION":0,
						"NORMAL":1,
						"TEXCOORD_0":2
					},
					"indices":3,
					"material":0
				},
				{
					"attributes":{
						"POSITION":4,
						"NORMAL":5,
						"TEXCOORD_0":6
					},
					"indices":7,
					"material":1
				}
			]
		}
	],
	"textures":[
		{
			"sampler":0,
			"source":0
		},
		{
			"sampler":0,
			"source":1
		},
		{
			"sampler":0,
			"source":2
		},
		{
			"sampler":0,
			"source":3
		}
	],
	"images":[
		{
			"mimeType":"image/png",
			"name":"gdt_bike_tex01_nw",
			"uri":"texture/gdt_bike_tex01_nw.png"
		},
		{
			"mimeType":"image/png",
			"name":"gdt_bike_tex01_df",
			"uri":"texture/gdt_bike_tex01_df.png"
		},
		{
			"mimeType":"image/png",
			"name":"gdt_bike_tex02_nw",
			"uri":"texture/gdt_bike_tex02_nw.png"
		},
		{
			"mimeType":"image/png",
			"name":"gdt_bike_tex02_df",
			"uri":"texture/gdt_bike_tex02_df.png"
		}
	],
	"accessors":[
		{
			"bufferView":0,
			"componentType":5126,
			"count":3910,
			"max":[
				121.19000244140625,
				40.24679946899414,
				27.39259910583496
			],
			"min":[
				-128.86700439453125,
				-40.24689865112305,
				-101.02899932861328
			],
			"type":"VEC3"
		},
		{
			"bufferView":1,
			"componentType":5126,
			"count":3910,
			"type":"VEC3"
		},
		{
			"bufferView":2,
			"componentType":5126,
			"count":3910,
			"type":"VEC2"
		},
		{
			"bufferView":3,
			"componentType":5123,
			"count":4608,
			"type":"SCALAR"
		},
		{
			"bufferView":4,
			"componentType":5126,
			"count":630,
			"max":[
				99.55130004882812,
				18.049699783325195,
				-22.092599868774414
			],
			"min":[
				-91.52369689941406,
				-18.049699783325195,
				-94.59839630126953
			],
			"type":"VEC3"
		},
		{
			"bufferView":5,
			"componentType":5126,
			"count":630,
			"type":"VEC3"
		},
		{
			"bufferView":6,
			"componentType":5126,
			"count":630,
			"type":"VEC2"
		},
		{
			"bufferView":7,
			"componentType":5123,
			"count":858,
			"type":"SCALAR"
		}
	],
	"bufferViews":[
		{
			"buffer":0,
			"byteLength":46920,
			"byteOffset":0,
			"target":34962
		},
		{
			"buffer":0,
			"byteLength":46920,
			"byteOffset":46920,
			"target":34962
		},
		{
			"buffer":0,
			"byteLength":31280,
			"byteOffset":93840,
			"target":34962
		},
		{
			"buffer":0,
			"byteLength":9216,
			"byteOffset":125120,
			"target":34963
		},
		{
			"buffer":0,
			"byteLength":7560,
			"byteOffset":134336,
			"target":34962
		},
		{
			"buffer":0,
			"byteLength":7560,
			"byteOffset":141896,
			"target":34962
		},
		{
			"buffer":0,
			"byteLength":5040,
			"byteOffset":149456,
			"target":34962
		},
		{
			"buffer":0,
			"byteLength":1716,
			"byteOffset":154496,
			"target":34963
		}
	],
	"samplers":[
		{
			"magFilter":9729,
			"minFilter":9987
		}
	],
	"buffers":[
		{
			"byteLength":156212,
			"uri":"Bike.bin"
		}
	]
}
